<?xml version="1.0" encoding="utf-8"?>
<svg version="1.1" xmlns="http://www.w3.org/2000/svg" xmlns:xlink="http://www.w3.org/1999/xlink" x="0px" y="0px"
	 viewBox="0 0 124 124" style="enable-background:new 0 0 124 124;" xml:space="preserve">
<style type="text/css">
	.st0{fill:#D2D2D2;}
	.st1{fill:#B56815;}
</style>
<path class="st0" d="M119.7,26.2c-5-18.4-26.2-16.6-26.2-16.6c-4.3,1.2-10.9,5.1-16.1,8.4L2.6,65.9l13.5,5.4
	c13.3,21.7,22.4,28.2,36,31.4l6.3,6.2l43.7-25.5l-1-8.2l2.2-17.5l8.1-5.5C111.5,52.1,124.4,43.6,119.7,26.2z M100.2,50.3L86,23.8
	c2.1-2.4,20-12.3,25.7,0.4S111.2,42.8,100.2,50.3z"/>
<path class="st1" d="M54.4,44.1c-0.9,0.5-2,0.2-2.6-0.7c-0.5-0.9-0.2-2,0.7-2.6l9-5.3c0.9-0.5,2-0.2,2.5,0.7c0.5,0.9,0.2,2-0.7,2.6
	L54.4,44.1z M34.2,56c-0.9,0.5-2,0.2-2.6-0.7c-0.5-0.9-0.2-2,0.7-2.6l3.2-1.9c0.9-0.5,2-0.2,2.6,0.7c0.5,0.9,0.2,2-0.7,2.6L34.2,56z
	 M21.1,63.7c-0.9,0.5-2,0.2-2.6-0.7c-0.5-0.9-0.2-2,0.7-2.6l3.2-1.9c0.9-0.5,2-0.2,2.6,0.7c0.5,0.9,0.2,2-0.7,2.6L21.1,63.7z
	 M58.1,50.5c-0.9,0.5-2,0.2-2.6-0.7c-0.5-0.9-0.2-2,0.7-2.6l9-5.3c0.9-0.5,2-0.2,2.5,0.7c0.5,0.9,0.2,2-0.7,2.6L58.1,50.5z
	 M61.9,56.8c-0.9,0.5-2,0.2-2.5-0.7c-0.5-0.9-0.2-2,0.7-2.6l9-5.3c0.9-0.5,2-0.2,2.5,0.7c0.5,0.9,0.2,2-0.7,2.6L61.9,56.8z
	 M65.6,63.2c-0.9,0.5-2,0.2-2.6-0.7c-0.5-0.9-0.2-2,0.7-2.6l9-5.3c0.9-0.5,2-0.2,2.6,0.7c0.5,0.9,0.2,2-0.7,2.6L65.6,63.2z
	 M69.3,69.5c-0.9,0.5-2,0.2-2.5-0.7c-0.5-0.9-0.2-2,0.7-2.6l9-5.3c0.9-0.5,2-0.2,2.6,0.7c0.5,0.9,0.2,2-0.7,2.6L69.3,69.5z M73,75.9
	c-0.9,0.5-2,0.2-2.6-0.7c-0.5-0.9-0.2-2,0.7-2.6l9-5.3c0.9-0.5,2-0.2,2.6,0.7c0.5,0.9,0.2,2-0.7,2.6L73,75.9z M76.8,82.2
	c-0.9,0.5-2,0.2-2.6-0.7c-0.5-0.9-0.2-2,0.7-2.6l9-5.3c0.9-0.5,2-0.2,2.6,0.7c0.5,0.9,0.2,2-0.7,2.6L76.8,82.2z M87.6,37.5
	c1,0,1.9,0.9,1.9,1.9s-0.9,1.9-1.9,1.9s-1.9-0.9-1.9-1.9C85.7,38.3,86.6,37.5,87.6,37.5z M2.9,61.8c-1.4,0.8-2,2-1.9,3.6
	c0.1,1.6,0.9,2.7,2.3,3.3c0.6,0.3,7.9,2.6,10.9,3.6c0.4,0.1,0.9,0.5,1.2,0.9c0.9,1.2,1.8,2.5,2.6,3.8c2.8,4,5.5,7.9,8.3,11.9
	c2,2.9,4.3,5.7,7,8c4.9,4.1,10.6,6.6,17,7.3c0.6,0.1,1.1,0.3,1.4,0.9c0.4,0.7,0.8,1.5,1.4,2.1c0.7,0.7,1.6,1.4,2.4,2l-5.9,3.5
	c-0.9,0.5-1.2,1.7-0.7,2.6c0.5,0.9,1.7,1.2,2.6,0.7l61-35.8c0.9-0.5,1.2-1.7,0.7-2.6s-1.7-1.2-2.6-0.7l-6.4,3.8
	c0-1.9-0.7-3.6-1.7-5.1c-0.4-0.6-0.4-1.2-0.1-1.8c1.9-4.6,2.6-9.3,2.1-14.3c0-0.4,0.1-0.7,0.5-0.9c1.5-0.9,2.9-1.8,4.4-2.7
	c2.9-1.9,5.5-4.1,7.8-6.8c7.7-9.3,7.8-22.9-0.1-32.2c-6.4-7.4-14.5-9.8-23.9-6.9c-1.5,0.4-2.9,1.1-4.3,1.8c-0.9,0.5-1,1.6-0.5,2.5
	c0.5,0.9,1.3,1.2,2.2,0.8c0.7-0.3,1.5-0.7,2.2-1c5.3-2.2,10.5-2.2,15.6,0.5c4.5,2.3,7.5,6,9.3,10.7c2.9,7.6,1.7,14.7-3.3,21.2
	c-1.8,2.3-4.1,4.3-6.5,6c-1.3,0.9-2.7,1.6-4.1,2.4c-0.3-0.9-0.6-1.8-1-2.8c0.5-0.3,1.1-0.6,1.6-0.9c1.9-1.4,3.9-2.7,5.7-4.3
	c2.9-2.6,5-5.8,5.9-9.6c1.2-5.4,0.4-10.4-2.7-15c-2.5-3.7-6-6-10.5-6.7c-3.6-0.6-6.9,0.4-10,2.1c-1.9,1.1-3.8,2.2-5.8,3.4
	c-0.4-0.6-0.7-1.1-1-1.7c-0.3-0.7-0.5-1.4-0.7-2.2c-0.4-1.6-2.1-2.2-3.8-1.2L2.9,61.8z M88.6,24.2c7.9-4.6,15.7-8.6,21.6,1.4
	c5.9,10.1-0.4,16.9-9.4,22C95.2,36.4,88.6,24.2,88.6,24.2z M60.5,106.2c-1.8,1-3.7-0.2-4.6-2.1c2.4-0.5,4-0.4,9.7-3.7
	c8.3-4.9,19.7-11.6,28-16.5c3.3-1.9,5.2-4.3,5.8-5.4c1.4,1.8,1.2,4.2-0.9,5.4L60.5,106.2z M83.5,23.3c2.2,4.1,4.4,8.2,6.5,12.3
	c2.7,5.1,5.4,10.2,7.9,15.4c3.7,7.5,3.8,15,0,22.5c-1.7,3.3-4.3,5.9-7.4,7.7c-9.1,5.4-18.1,10.8-27.3,16c-7.2,4.1-14.6,4-21.9,0.3
	c-4.5-2.3-8.1-5.6-11-9.8c-2.1-3-4.3-6-6.4-9c-1.9-2.8-3.7-5.6-5.6-8.4c-0.5-0.8-1.1-1.2-1.9-1.5c-3.3-1-10.9-3.5-11.6-3.8
	c6.5-3.8,12.8-7.5,19.2-11.3c0.7,1.3,2.5,4.4,2.8,4.7c0.6,0.8,1.4,1,2.2,0.5c0.9-0.5,1.2-1.4,0.7-2.3c-0.8-1.4-2.6-4.4-2.7-4.6
	c16.6-9.8,33.2-19.5,49.8-29.3c0.7,1.2,1.5,2.5,2.2,3.7c1.1,2,2.2,4.1,3.3,6.2c0.7,1.2,1.5,1.5,2.5,1c1.1-0.6,1.3-1.6,0.6-2.8
	c-1.8-3.3-3.5-6.6-5.3-9.9c0.5-0.3,1-0.6,1.5-0.9C82.2,21.2,82.9,22.2,83.5,23.3z M56.8,93.8c-0.3,0-0.6,0.1-0.9,0.1
	c-7,0.8-13-1.4-17.9-6.5c-3-3.2-5.4-6.8-7.9-10.4c-1.3-1.8-2.5-3.7-3.8-5.5c-0.6-0.9-1.6-1.1-2.4-0.6c-0.9,0.5-1.1,1.5-0.6,2.4
	c0.6,1.1,1.3,2.1,2.1,3.2c2.8,3.9,5.4,7.8,8.3,11.5c4.6,5.8,10.7,9.2,18.2,9.6c1.8,0.1,3.6-0.2,5.4-0.4c1.1-0.2,1.6-1,1.5-2
	C58.7,94.3,57.9,93.8,56.8,93.8z M90.1,44c-1,0.5-1.3,1.6-0.7,2.6c1.5,3.1,3.1,6.1,4,9.4c1.3,4.7,1.3,9.3-0.6,13.9
	c-0.6,1.3-1.3,2.6-2,3.9c-0.6,1.1-0.3,2.1,0.7,2.6c0.8,0.4,1.6,0.1,2.2-0.8c4.3-5.8,5.1-12.3,3.6-19.1c-0.9-4.1-2.8-7.8-4.8-11.5
	C92.1,43.9,91,43.6,90.1,44z M47.7,91.7c0.1,0.1,0.3,0.1,0.5,0.1c0.8,0.1,1.6-0.3,1.9-1.1c0.3-0.8,0.1-1.6-0.7-2
	c-1.6-0.8-3.2-1.6-4.8-2.3c-0.4-0.2-1-0.1-1.3-0.1c-1.4,0.9-1.4,2.6-0.1,3.3C44.6,90.3,46.2,91,47.7,91.7z"/>
</svg>
