<svg version="1.1" xmlns="http://www.w3.org/2000/svg" xmlns:xlink="http://www.w3.org/1999/xlink" x="0px" y="0px"
	 width="16px" height="16px" viewBox="-119.5 124.5 16 16" enable-background="new -119.5 124.5 16 16" xml:space="preserve">
<path d="M-118.495,140.277c-0.202,0-0.403-0.076-0.556-0.23c-0.307-0.307-0.305-0.804,0.003-1.109l6.478-6.438l-6.477-6.438
	c-0.309-0.307-0.31-0.804-0.003-1.109c0.306-0.307,0.802-0.309,1.108-0.004l6.484,6.445l6.398-6.36
	c0.308-0.306,0.804-0.304,1.109,0.004c0.307,0.308,0.305,0.804-0.003,1.108l-6.394,6.354l6.393,6.354
	c0.309,0.307,0.309,0.804,0.003,1.109c-0.305,0.309-0.802,0.309-1.108,0.004l-6.399-6.361l-6.484,6.445
	C-118.096,140.202-118.295,140.277-118.495,140.277z"/>
</svg>
