<svg xmlns="http://www.w3.org/2000/svg" width="24px" height="24px" viewBox="0 0 24 24">
<path d="M5.089,13.344c0.175,4.348,3.827,7.743,8.173,7.597c4.295-0.146,7.684-3.759,7.684-8.03c0-4.241-3.469-7.709-7.687-7.85
	C8.567,4.904,5.089,8.821,5.089,13.344z M5.453,6.825C9.025,2.553,15.545,2.072,19.65,5.876c3.99,3.697,4.093,10.179,0.225,14.008
	c-3.722,3.709-9.901,3.808-13.668,0.136C2.466,16.382,2.585,10.939,5.453,6.825z M16.27,17.461l-4.151-4.117V7.527h1.805v5.075
	l3.629,3.578L16.27,17.461z"/>
</svg>
