<svg version="1.1" xmlns="http://www.w3.org/2000/svg" xmlns:xlink="http://www.w3.org/1999/xlink" x="0px" y="0px"
	 width="16px" height="16px" viewBox="0 0 16 16" enable-background="new 0 0 16 16" xml:space="preserve">
<path d="M15.426,14.367l-3.774-3.792c0.832-1.074,1.333-2.42,1.333-3.883c0-3.494-2.833-6.338-6.314-6.338S0.355,3.198,0.355,6.692
	c0,3.496,2.833,6.341,6.315,6.341c1.486,0,2.852-0.521,3.932-1.388l3.763,3.779c0.146,0.146,0.339,0.221,0.531,0.221
	c0.19,0,0.383-0.072,0.528-0.219C15.717,15.136,15.718,14.661,15.426,14.367z M6.668,11.533c-2.655,0-4.815-2.171-4.815-4.841
	c0-2.668,2.16-4.838,4.815-4.838s4.814,2.17,4.814,4.838C11.483,9.362,9.323,11.533,6.668,11.533z"/>
</svg>
