<svg fill="none"  x="0px" y="0px" width="240px" height="240px" viewBox="0 0 240 240" fill="none">
<title>Placeholder</title>
<rect fill="#757575" width="240" height="240"/>
<path fill="#ADADAD" d="M108.924,92.932c-1.314,0.774-3.009,0.334-3.783-0.981c-0.772-1.319-0.334-3.011,0.983-3.787l13.293-7.814
	c1.312-0.774,3.004-0.335,3.778,0.982c0.773,1.316,0.333,3.01-0.981,3.783L108.924,92.932z M78.964,110.553
	c-1.316,0.772-3.009,0.333-3.783-0.981c-0.772-1.32-0.334-3.011,0.983-3.788l4.781-2.813c1.317-0.775,3.009-0.336,3.784,0.982
	c0.772,1.317,0.333,3.012-0.981,3.785L78.964,110.553z M59.631,121.926c-1.316,0.771-3.009,0.333-3.782-0.985
	c-0.773-1.317-0.335-3.009,0.982-3.785l4.781-2.813c1.315-0.773,3.008-0.335,3.782,0.984c0.771,1.315,0.333,3.009-0.981,3.784
	L59.631,121.926z M114.459,102.352c-1.317,0.772-3.01,0.333-3.784-0.983c-0.774-1.318-0.334-3.011,0.983-3.785l13.286-7.82
	c1.317-0.773,3.006-0.334,3.778,0.982c0.776,1.317,0.336,3.012-0.981,3.785L114.459,102.352z M119.99,111.771
	c-1.314,0.774-3.009,0.337-3.781-0.982c-0.774-1.317-0.335-3.009,0.981-3.783l13.284-7.819c1.314-0.774,3.006-0.335,3.779,0.981
	c0.775,1.318,0.339,3.011-0.979,3.788L119.99,111.771z M125.521,121.19c-1.315,0.772-3.009,0.334-3.781-0.98
	c-0.775-1.319-0.337-3.012,0.979-3.786l13.288-7.82c1.317-0.773,3.008-0.335,3.784,0.982c0.773,1.317,0.333,3.01-0.984,3.784
	L125.521,121.19z M131.048,130.604c-1.314,0.773-3.002,0.335-3.778-0.982c-0.771-1.314-0.333-3.009,0.981-3.782l13.288-7.817
	c1.317-0.771,3.011-0.334,3.787,0.982c0.771,1.317,0.333,3.01-0.984,3.786L131.048,130.604z M136.582,140.02
	c-1.314,0.773-3.009,0.336-3.782-0.979c-0.772-1.319-0.336-3.011,0.981-3.786l13.294-7.813c1.314-0.774,3.009-0.336,3.781,0.981
	c0.773,1.314,0.336,3.006-0.981,3.781L136.582,140.02z M142.115,149.434c-1.314,0.771-3.009,0.333-3.784-0.983
	c-0.773-1.316-0.333-3.01,0.981-3.781l13.293-7.815c1.317-0.773,3.009-0.333,3.785,0.981c0.772,1.316,0.333,3.01-0.982,3.783
	L142.115,149.434z M158.18,83.095c1.555,0,2.817,1.261,2.817,2.817c0,1.555-1.263,2.816-2.817,2.816s-2.817-1.261-2.817-2.816
	C155.362,84.356,156.625,83.095,158.18,83.095z M32.641,119.18c-2.026,1.194-2.913,3.014-2.832,5.281
	c0.083,2.319,1.3,3.965,3.409,4.91c0.869,0.39,11.643,3.85,16.098,5.344c0.651,0.216,1.3,0.738,1.719,1.295
	c1.359,1.815,2.61,3.712,3.903,5.576c4.083,5.886,8.159,11.775,12.252,17.659c3.032,4.354,6.352,8.456,10.448,11.879
	c7.32,6.117,15.695,9.787,25.189,10.841c0.962,0.107,1.601,0.464,2.077,1.323c0.597,1.079,1.179,2.227,2.034,3.081
	c1.09,1.086,2.328,2.031,3.543,2.997l-8.723,5.125c-1.314,0.773-1.755,2.467-0.981,3.784c0.772,1.316,2.467,1.757,3.782,0.981
	l90.361-53.124c1.314-0.772,1.757-2.468,0.984-3.783c-0.773-1.316-2.468-1.755-3.785-0.98l-9.558,5.62
	c-0.023-2.872-1.08-5.308-2.551-7.592c-0.585-0.911-0.594-1.706-0.194-2.677c2.82-6.789,3.802-13.857,3.072-21.166
	c-0.066-0.659,0.133-1,0.681-1.332c2.174-1.33,4.337-2.678,6.471-4.071c4.317-2.821,8.212-6.131,11.521-10.111
	c11.47-13.79,11.608-34.008-0.165-47.687c-9.442-10.97-21.433-14.486-35.43-10.253c-2.187,0.662-4.291,1.682-6.33,2.733
	c-1.314,0.677-1.534,2.318-0.781,3.674c0.712,1.281,1.969,1.775,3.336,1.236c1.108-0.438,2.174-0.99,3.274-1.448
	c7.795-3.251,15.532-3.198,23.066,0.714c6.645,3.454,11.165,8.905,13.769,15.874c4.232,11.336,2.524,21.813-4.896,31.359
	c-2.708,3.484-6.043,6.316-9.637,8.827c-1.908,1.331-4.005,2.392-6.075,3.609c-0.451-1.27-0.927-2.61-1.465-4.134
	c0.773-0.457,1.604-0.851,2.328-1.387c2.841-2.099,5.8-4.072,8.435-6.409c4.32-3.832,7.36-8.574,8.681-14.258
	c1.851-7.964,0.573-15.435-4.024-22.212c-3.721-5.489-8.869-8.95-15.5-9.965c-5.346-0.821-10.271,0.543-14.895,3.156
	c-2.844,1.604-5.635,3.3-8.545,5.009c-0.533-0.908-1.083-1.65-1.431-2.479c-0.435-1.048-0.771-2.146-1.033-3.25
	c-0.577-2.414-3.153-3.23-5.682-1.746L32.641,119.18z M159.604,63.378c11.727-6.895,23.283-12.821,32.06,2.111
	c8.779,14.936-0.648,25.117-13.997,32.607C169.484,81.446,159.604,63.378,159.604,63.378z M117.993,184.943
	c-2.642,1.553-5.511-0.35-6.875-3.068c3.519-0.7,5.881-0.535,14.334-5.507c12.289-7.228,29.138-17.234,41.45-24.428
	c4.85-2.831,7.777-6.395,8.654-8.029c2.036,2.633,1.734,6.169-1.268,7.936L117.993,184.943z M152.012,62.11
	c3.252,6.07,6.504,12.141,9.689,18.248c3.961,7.588,7.977,15.152,11.75,22.837c5.426,11.055,5.669,22.226,0.028,33.313
	c-2.499,4.91-6.312,8.69-11.003,11.483c-13.455,8.005-26.899,16.033-40.494,23.794c-10.627,6.065-21.582,5.877-32.453,0.442
	c-6.723-3.363-12.04-8.37-16.342-14.495c-3.132-4.457-6.334-8.865-9.42-13.357c-2.818-4.104-5.557-8.262-8.25-12.445
	c-0.719-1.119-1.611-1.771-2.852-2.157c-4.944-1.534-16.196-5.212-17.197-5.586c9.652-5.675,19.01-11.177,28.482-16.75
	c1.098,1.866,3.763,6.474,4.088,6.922c0.849,1.169,2.117,1.457,3.238,0.778c1.266-0.771,1.771-2.133,1.073-3.399
	c-1.152-2.095-3.877-6.582-4.034-6.847c24.676-14.517,49.282-28.98,73.837-43.423c1.086,1.849,2.192,3.634,3.203,5.468
	c1.674,3.035,3.266,6.111,4.937,9.147c0.993,1.807,2.247,2.269,3.663,1.473c1.59-0.895,1.861-2.363,0.877-4.194
	c-2.614-4.872-5.188-9.765-7.817-14.714c0.775-0.458,1.474-0.866,2.209-1.297C150.177,58.965,151.152,60.505,152.012,62.11z
	 M112.512,166.627c-0.436,0.027-0.87,0.089-1.305,0.134c-10.425,1.139-19.29-2.031-26.551-9.621
	c-4.476-4.678-7.951-10.115-11.654-15.378c-1.901-2.702-3.731-5.451-5.622-8.157c-0.887-1.268-2.301-1.562-3.554-0.82
	c-1.272,0.757-1.7,2.266-0.892,3.626c0.953,1.607,1.963,3.187,3.045,4.71c4.081,5.73,7.973,11.617,12.363,17.102
	c6.885,8.6,15.832,13.71,27.039,14.169c2.633,0.104,5.308-0.304,7.936-0.663c1.637-0.223,2.433-1.522,2.192-3.006
	C115.281,167.338,114.138,166.531,112.512,166.627z M161.86,92.83c-1.454,0.771-1.877,2.306-1.106,3.865
	c2.244,4.525,4.65,8.973,5.991,13.888c1.899,6.969,1.963,13.851-0.933,20.576c-0.846,1.965-1.943,3.822-2.931,5.726
	c-0.84,1.623-0.426,3.146,1.055,3.844c1.146,0.542,2.316,0.168,3.286-1.149c6.329-8.593,7.493-18.173,5.368-28.37
	c-1.277-6.116-4.192-11.559-7.042-17.026C164.759,92.677,163.203,92.115,161.86,92.83z M98.972,163.461
	c0.213,0.097,0.457,0.138,0.689,0.177c1.242,0.199,2.316-0.42,2.744-1.578c0.437-1.186,0.094-2.38-1.041-2.968
	c-2.36-1.214-4.749-2.384-7.177-3.456c-0.657-0.288-1.499-0.155-1.891-0.189c-2.082,1.265-2.018,3.78-0.102,4.831
	C94.377,161.476,96.703,162.416,98.972,163.461z"/>
</svg>
