<?xml version="1.0" encoding="utf-8"?>
<svg version="1.1" xmlns="http://www.w3.org/2000/svg" xmlns:xlink="http://www.w3.org/1999/xlink" x="0px" y="0px"
	 width="124px" height="124px" viewBox="-2313.5 674.5 124 124" enable-background="new -2313.5 674.5 124 124"
	 xml:space="preserve">
<path fill="#D2D2D2" d="M-2194.416,700.083c-5-18.416-26.167-16.583-26.167-16.583c-4.334,1.25-10.917,5.083-16.084,8.417
	l-74.833,47.833l13.501,5.416c13.333,21.667,22.417,28.25,36,31.417l6.333,6.167l43.75-25.5l-1-8.25l2.25-17.5l8.083-5.5
	C-2202.583,726-2189.695,717.47-2194.416,700.083z M-2213.929,724.194l-14.184-26.531c2.143-2.449,20-12.347,25.714,0.408
	S-2202.908,716.643-2213.929,724.194z"/>
<path fill="#B56815" d="M-2259.701,717.979c-0.887,0.521-2.03,0.225-2.552-0.662c-0.521-0.889-0.225-2.03,0.663-2.553l8.966-5.271
	c0.888-0.522,2.03-0.226,2.552,0.662s0.225,2.03-0.662,2.552L-2259.701,717.979z"/>
<path fill="#B56815" d="M-2279.91,729.857c-0.888,0.521-2.03,0.225-2.552-0.662c-0.521-0.889-0.225-2.03,0.663-2.553l3.225-1.896
	c0.888-0.522,2.03-0.226,2.552,0.662c0.521,0.888,0.225,2.03-0.662,2.552L-2279.91,729.857z"/>
<path fill="#B56815" d="M-2292.95,737.523c-0.888,0.521-2.03,0.225-2.551-0.664c-0.522-0.887-0.226-2.028,0.662-2.551l3.225-1.896
	c0.887-0.521,2.029-0.226,2.551,0.663c0.521,0.887,0.225,2.029-0.662,2.551L-2292.95,737.523z"/>
<path fill="#B56815" d="M-2255.968,724.328c-0.888,0.521-2.03,0.225-2.552-0.663s-0.225-2.029,0.663-2.551l8.966-5.271
	c0.888-0.522,2.029-0.226,2.551,0.662s0.226,2.03-0.663,2.552L-2255.968,724.328z"/>
<path fill="#B56815" d="M-2252.236,730.678c-0.887,0.522-2.03,0.227-2.551-0.662c-0.522-0.888-0.226-2.029,0.662-2.551l8.966-5.271
	c0.888-0.521,2.03-0.225,2.552,0.662c0.522,0.888,0.227,2.03-0.662,2.553L-2252.236,730.678z"/>
<path fill="#B56815" d="M-2248.503,737.027c-0.888,0.522-2.029,0.226-2.551-0.661c-0.522-0.888-0.226-2.03,0.661-2.552l8.967-5.271
	c0.888-0.521,2.029-0.227,2.552,0.662c0.522,0.888,0.226,2.029-0.663,2.551L-2248.503,737.027z"/>
<path fill="#B56815" d="M-2244.771,743.378c-0.887,0.521-2.028,0.226-2.551-0.663c-0.521-0.887-0.225-2.029,0.662-2.551l8.967-5.271
	c0.888-0.521,2.03-0.226,2.553,0.662c0.521,0.887,0.225,2.029-0.663,2.553L-2244.771,743.378z"/>
<path fill="#B56815" d="M-2241.038,749.729c-0.887,0.521-2.028,0.226-2.551-0.662c-0.521-0.889-0.226-2.03,0.663-2.553l8.966-5.271
	c0.887-0.522,2.03-0.226,2.552,0.662c0.521,0.887,0.225,2.028-0.663,2.551L-2241.038,749.729z"/>
<path fill="#B56815" d="M-2237.305,756.078c-0.887,0.521-2.03,0.225-2.553-0.663c-0.521-0.888-0.225-2.03,0.663-2.551l8.966-5.271
	c0.889-0.522,2.03-0.225,2.553,0.662c0.521,0.888,0.225,2.03-0.663,2.552L-2237.305,756.078z"/>
<circle fill="#B56815" cx="-2226.469" cy="713.245" r="1.9"/>
<path fill="#B56815" d="M-2311.156,735.672c-1.367,0.805-1.965,2.032-1.91,3.561c0.056,1.565,0.877,2.675,2.299,3.313
	c0.586,0.263,7.854,2.597,10.859,3.604c0.439,0.146,0.877,0.498,1.159,0.873c0.917,1.225,1.761,2.504,2.633,3.762
	c2.754,3.97,5.503,7.943,8.264,11.911c2.045,2.938,4.285,5.704,7.047,8.013c4.938,4.126,10.587,6.602,16.991,7.313
	c0.649,0.072,1.08,0.312,1.401,0.892c0.402,0.728,0.795,1.502,1.372,2.078c0.735,0.733,1.57,1.37,2.39,2.022l-5.884,3.457
	c-0.887,0.521-1.184,1.664-0.662,2.553c0.521,0.887,1.664,1.184,2.551,0.662l60.958-35.834c0.888-0.521,1.185-1.664,0.664-2.552
	c-0.522-0.888-1.664-1.184-2.552-0.661l-6.448,3.791c-0.016-1.938-0.728-3.58-1.72-5.121c-0.395-0.615-0.401-1.151-0.131-1.806
	c1.903-4.579,2.565-9.347,2.072-14.274c-0.044-0.445,0.09-0.674,0.459-0.898c1.467-0.896,2.926-1.805,4.366-2.744
	c2.912-1.902,5.539-4.134,7.771-6.816c7.737-9.297,7.83-22.935-0.112-32.162c-6.369-7.399-14.457-9.771-23.897-6.916
	c-1.476,0.447-2.896,1.135-4.271,1.844c-0.886,0.457-1.034,1.564-0.526,2.479c0.479,0.864,1.328,1.197,2.25,0.834
	c0.748-0.296,1.466-0.668,2.209-0.977c5.257-2.193,10.475-2.157,15.557,0.482c4.484,2.33,7.532,6.006,9.288,10.707
	c2.856,7.646,1.703,14.713-3.303,21.149c-1.827,2.349-4.077,4.258-6.5,5.95c-1.287,0.898-2.702,1.613-4.098,2.434
	c-0.304-0.857-0.624-1.76-0.987-2.787c0.521-0.308,1.082-0.574,1.57-0.935c1.916-1.415,3.912-2.745,5.689-4.32
	c2.914-2.583,4.964-5.78,5.855-9.614c1.248-5.373,0.388-10.412-2.714-14.983c-2.511-3.702-5.983-6.037-10.456-6.722
	c-3.604-0.553-6.928,0.367-10.047,2.129c-1.917,1.082-3.8,2.226-5.763,3.379c-0.36-0.612-0.731-1.113-0.964-1.672
	c-0.294-0.707-0.521-1.447-0.698-2.192c-0.388-1.628-2.127-2.179-3.832-1.178L-2311.156,735.672z M-2225.509,698.045
	c7.911-4.65,15.705-8.648,21.626,1.424c5.922,10.074-0.437,16.941-9.442,21.99C-2218.844,710.232-2225.509,698.045-2225.509,698.045
	z M-2253.584,780.03c-1.782,1.048-3.718-0.235-4.638-2.069c2.373-0.473,3.967-0.361,9.673-3.715
	c8.292-4.875,19.658-11.625,27.963-16.477c3.271-1.91,5.245-4.313,5.838-5.416c1.373,1.776,1.169,4.162-0.855,5.353
	L-2253.584,780.03z M-2230.63,697.189c2.194,4.095,4.387,8.19,6.536,12.309c2.671,5.118,5.381,10.218,7.926,15.398
	c3.66,7.453,3.823,14.985,0.02,22.463c-1.686,3.313-4.259,5.863-7.422,7.746c-9.076,5.4-18.146,10.815-27.32,16.05
	c-7.171,4.091-14.56,3.964-21.893,0.298c-4.535-2.268-8.121-5.645-11.023-9.777c-2.113-3.006-4.273-5.98-6.354-9.01
	c-1.901-2.768-3.748-5.572-5.565-8.395c-0.485-0.754-1.087-1.194-1.923-1.455c-3.335-1.035-10.925-3.515-11.6-3.767
	c6.511-3.827,12.823-7.536,19.212-11.293c0.741,1.259,2.538,4.364,2.758,4.667c0.572,0.788,1.428,0.982,2.184,0.524
	c0.854-0.519,1.195-1.437,0.724-2.291c-0.777-1.412-2.615-4.437-2.721-4.616c16.645-9.785,33.242-19.541,49.813-29.283
	c0.733,1.247,1.478,2.451,2.16,3.688c1.129,2.047,2.204,4.123,3.33,6.17c0.67,1.219,1.516,1.531,2.471,0.994
	c1.072-0.604,1.256-1.594,0.593-2.83c-1.764-3.286-3.501-6.586-5.274-9.924c0.524-0.309,0.994-0.584,1.49-0.875
	C-2231.868,695.068-2231.21,696.107-2230.63,697.189z"/>
<path fill="#B56815" d="M-2257.281,767.676c-0.294,0.018-0.587,0.059-0.88,0.09c-7.032,0.768-13.012-1.371-17.91-6.49
	c-3.019-3.155-5.363-6.823-7.861-10.373c-1.282-1.822-2.516-3.676-3.792-5.502c-0.598-0.855-1.552-1.053-2.397-0.553
	c-0.859,0.51-1.147,1.528-0.602,2.446c0.643,1.084,1.324,2.149,2.054,3.177c2.753,3.865,5.378,7.836,8.339,11.535
	c4.644,5.801,10.679,9.248,18.238,9.557c1.776,0.071,3.58-0.205,5.353-0.447c1.104-0.15,1.641-1.027,1.479-2.027
	C-2255.413,768.155-2256.184,767.611-2257.281,767.676z"/>
<path fill="#B56815" d="M-2223.987,717.909c-0.981,0.521-1.266,1.555-0.745,2.606c1.513,3.049,3.137,6.047,4.041,9.362
	c1.28,4.697,1.323,9.338-0.629,13.874c-0.57,1.325-1.311,2.578-1.977,3.862c-0.567,1.095-0.288,2.122,0.71,2.593
	c0.774,0.365,1.563,0.113,2.218-0.775c4.27-5.796,5.055-12.258,3.62-19.132c-0.86-4.123-2.828-7.792-4.749-11.478
	C-2222.032,717.807-2223.08,717.428-2223.987,717.909z"/>
<path fill="#B56815" d="M-2266.414,765.54c0.144,0.065,0.308,0.093,0.465,0.119c0.838,0.135,1.562-0.283,1.85-1.064
	c0.295-0.8,0.064-1.606-0.702-2.002c-1.592-0.819-3.203-1.608-4.841-2.331c-0.443-0.195-1.011-0.105-1.275-0.128
	c-1.404,0.853-1.361,2.55-0.069,3.259C-2269.514,764.201-2267.944,764.835-2266.414,765.54z"/>
</svg>
