<svg x="0px" y="0px" width="124px" height="124px" viewBox="0 0 124 124" fill="none">
<title>Measuring Cup</title>
<path fill="#D2D2D2" d="M119.67,26.209c-5-18.416-26.166-16.583-26.166-16.583c-4.334,1.25-10.918,5.083-16.084,8.417L2.595,65.89
	l13.501,5.416c13.333,21.667,22.417,28.25,36,31.417l6.333,6.167l43.741-25.5l-1-8.25l2.25-17.503l8.084-5.503
	C111.504,52.133,124.391,43.597,119.67,26.209z M100.158,50.326L85.973,23.79c2.145-2.449,20-12.347,25.715,0.408
	S111.178,42.77,100.158,50.326z"/>
<path fill="#B56815" d="M54.394,44.106c-0.887,0.522-2.03,0.226-2.552-0.662c-0.521-0.89-0.225-2.031,0.663-2.555l8.966-5.271
	c0.885-0.522,2.026-0.227,2.548,0.662c0.521,0.888,0.225,2.03-0.662,2.552L54.394,44.106z M34.185,55.992
	c-0.888,0.521-2.03,0.225-2.552-0.662c-0.521-0.89-0.225-2.031,0.663-2.555l3.225-1.897c0.888-0.523,2.03-0.227,2.552,0.663
	c0.521,0.888,0.225,2.032-0.662,2.553L34.185,55.992z M21.145,63.663c-0.888,0.521-2.03,0.225-2.551-0.664
	c-0.522-0.888-0.226-2.03,0.662-2.553l3.225-1.897c0.887-0.522,2.029-0.227,2.551,0.664c0.521,0.887,0.225,2.03-0.662,2.552
	L21.145,63.663z M58.127,50.46c-0.888,0.521-2.03,0.225-2.552-0.664c-0.522-0.889-0.225-2.031,0.663-2.553l8.961-5.275
	c0.889-0.521,2.027-0.226,2.549,0.663c0.523,0.888,0.227,2.032-0.662,2.553L58.127,50.46z M61.858,56.813
	c-0.886,0.522-2.029,0.228-2.55-0.663c-0.522-0.889-0.226-2.029,0.662-2.552l8.96-5.274c0.887-0.522,2.027-0.226,2.549,0.662
	c0.523,0.889,0.229,2.031-0.66,2.555L61.858,56.813z M65.588,63.167c-0.888,0.521-2.029,0.226-2.551-0.661
	c-0.522-0.89-0.227-2.032,0.66-2.554l8.963-5.275c0.889-0.521,2.029-0.227,2.553,0.663c0.521,0.888,0.225,2.03-0.664,2.552
	L65.588,63.167z M69.316,69.518c-0.887,0.521-2.025,0.226-2.549-0.663c-0.52-0.887-0.225-2.029,0.662-2.551l8.963-5.273
	c0.889-0.521,2.031-0.226,2.555,0.663c0.52,0.889,0.225,2.03-0.664,2.554L69.316,69.518z M73.049,75.868
	c-0.887,0.521-2.029,0.227-2.551-0.661c-0.521-0.89-0.227-2.03,0.662-2.554l8.967-5.271c0.887-0.522,2.029-0.227,2.551,0.662
	c0.521,0.887,0.227,2.027-0.662,2.551L73.049,75.868z M76.781,82.218c-0.887,0.521-2.029,0.225-2.553-0.663
	c-0.521-0.888-0.225-2.03,0.662-2.551l8.967-5.271c0.889-0.521,2.029-0.225,2.553,0.662c0.521,0.888,0.225,2.03-0.662,2.552
	L76.781,82.218z M87.617,37.471c1.049,0,1.9,0.851,1.9,1.9c0,1.049-0.852,1.899-1.9,1.899s-1.9-0.851-1.9-1.899
	C85.717,38.322,86.568,37.471,87.617,37.471z M2.938,61.811c-1.367,0.805-1.965,2.033-1.91,3.562
	c0.056,1.564,0.877,2.675,2.299,3.313c0.586,0.263,7.854,2.597,10.858,3.604c0.439,0.146,0.877,0.498,1.159,0.873
	c0.917,1.225,1.761,2.504,2.633,3.762c2.754,3.97,5.503,7.942,8.264,11.911c2.045,2.938,4.285,5.704,7.047,8.013
	c4.938,4.126,10.587,6.602,16.991,7.313c0.649,0.072,1.08,0.313,1.401,0.893c0.402,0.728,0.795,1.502,1.372,2.078
	c0.735,0.732,1.57,1.37,2.39,2.021l-5.884,3.457c-0.887,0.521-1.184,1.664-0.662,2.553c0.521,0.888,1.664,1.185,2.551,0.662
	l60.95-35.834c0.887-0.521,1.186-1.664,0.664-2.552s-1.664-1.184-2.553-0.661l-6.447,3.791c-0.016-1.938-0.729-3.58-1.721-5.121
	c-0.395-0.614-0.4-1.15-0.131-1.806c1.902-4.579,2.564-9.347,2.072-14.277c-0.045-0.444,0.09-0.674,0.459-0.898
	c1.467-0.897,2.926-1.806,4.365-2.746c2.912-1.903,5.539-4.136,7.771-6.82c7.736-9.301,7.83-22.939-0.111-32.166
	c-6.369-7.399-14.457-9.771-23.898-6.916c-1.475,0.446-2.895,1.135-4.27,1.844c-0.887,0.457-1.035,1.563-0.527,2.479
	c0.48,0.864,1.328,1.197,2.25,0.834c0.748-0.296,1.467-0.668,2.209-0.977c5.258-2.193,10.477-2.157,15.559,0.481
	c4.482,2.33,7.531,6.007,9.287,10.707c2.855,7.646,1.703,14.714-3.303,21.152c-1.826,2.35-4.076,4.261-6.5,5.954
	c-1.287,0.898-2.701,1.613-4.098,2.435c-0.305-0.856-0.625-1.76-0.988-2.788c0.521-0.308,1.082-0.574,1.57-0.936
	c1.916-1.416,3.912-2.747,5.689-4.323c2.914-2.584,4.965-5.783,5.855-9.617c1.248-5.372,0.387-10.411-2.715-14.982
	c-2.51-3.702-5.982-6.037-10.455-6.722c-3.605-0.554-6.928,0.366-10.047,2.129c-1.918,1.082-3.801,2.226-5.764,3.379
	c-0.359-0.612-0.73-1.113-0.965-1.672c-0.293-0.707-0.52-1.447-0.697-2.192c-0.389-1.628-2.127-2.179-3.832-1.178L2.938,61.811z
	 M88.578,24.171c7.91-4.65,15.705-8.648,21.625,1.424c5.922,10.074-0.438,16.942-9.441,21.994
	C95.242,36.359,88.578,24.171,88.578,24.171z M60.511,106.17c-1.782,1.048-3.718-0.235-4.638-2.069
	c2.373-0.473,3.967-0.361,9.668-3.715C73.83,95.511,85.195,88.761,93.5,83.909c3.271-1.91,5.246-4.313,5.838-5.416
	c1.373,1.775,1.17,4.161-0.855,5.353L60.511,106.17z M83.457,23.316c2.193,4.095,4.387,8.189,6.535,12.309
	c2.672,5.118,5.381,10.22,7.926,15.404c3.66,7.457,3.824,14.992,0.02,22.47c-1.686,3.313-4.258,5.862-7.422,7.746
	c-9.076,5.399-18.145,10.814-27.314,16.05c-7.167,4.091-14.557,3.964-21.89,0.298c-4.535-2.269-8.121-5.646-11.023-9.777
	c-2.113-3.006-4.273-5.979-6.354-9.01c-1.901-2.768-3.748-5.572-5.565-8.395c-0.485-0.755-1.087-1.194-1.923-1.455
	c-3.335-1.035-10.925-3.516-11.6-3.768c6.511-3.828,12.823-7.54,19.212-11.298c0.741,1.259,2.538,4.367,2.758,4.669
	c0.572,0.789,1.428,0.983,2.184,0.525c0.854-0.52,1.195-1.438,0.724-2.292c-0.777-1.413-2.615-4.44-2.721-4.619
	c16.645-9.792,33.242-19.548,49.805-29.29c0.732,1.247,1.479,2.451,2.16,3.688c1.129,2.047,2.203,4.122,3.33,6.17
	c0.67,1.219,1.516,1.53,2.471,0.993c1.072-0.604,1.256-1.594,0.592-2.829c-1.764-3.286-3.5-6.587-5.273-9.925
	c0.523-0.309,0.994-0.584,1.49-0.875C82.219,21.195,82.877,22.234,83.457,23.316z M56.813,93.815c-0.294,0.019-0.587,0.06-0.88,0.09
	c-7.032,0.769-13.012-1.37-17.91-6.489c-3.019-3.155-5.363-6.823-7.861-10.373c-1.282-1.822-2.517-3.677-3.792-5.502
	c-0.598-0.855-1.552-1.054-2.397-0.554c-0.858,0.511-1.146,1.528-0.602,2.446c0.643,1.084,1.324,2.149,2.054,3.177
	c2.753,3.865,5.378,7.836,8.339,11.535c4.645,5.801,10.679,9.248,18.238,9.558c1.776,0.07,3.58-0.205,5.353-0.447
	c1.104-0.15,1.641-1.027,1.479-2.027C58.682,94.295,57.911,93.751,56.813,93.815z M90.1,44.037c-0.98,0.521-1.266,1.556-0.746,2.607
	c1.514,3.052,3.137,6.052,4.041,9.368c1.281,4.701,1.324,9.343-0.629,13.879c-0.57,1.325-1.311,2.578-1.977,3.862
	c-0.566,1.095-0.287,2.122,0.711,2.593c0.773,0.365,1.563,0.113,2.217-0.775c4.27-5.796,5.055-12.258,3.621-19.136
	c-0.861-4.125-2.828-7.796-4.75-11.484C92.055,43.935,91.006,43.555,90.1,44.037z M47.681,91.68
	c0.144,0.065,0.308,0.093,0.465,0.119c0.838,0.135,1.563-0.283,1.851-1.064c0.295-0.8,0.063-1.605-0.702-2.002
	c-1.592-0.818-3.203-1.607-4.841-2.331c-0.443-0.194-1.011-0.104-1.275-0.128c-1.404,0.854-1.361,2.55-0.069,3.259
	C44.581,90.341,46.15,90.975,47.681,91.68z"/>
</svg>
